<?xml version="1.0" standalone="no"?><!DOCTYPE svg PUBLIC "-//W3C//DTD SVG 1.1//EN" "http://www.w3.org/Graphics/SVG/1.1/DTD/svg11.dtd"><svg t="1586695484926" class="icon" viewBox="0 0 1025 1024" version="1.1" xmlns="http://www.w3.org/2000/svg" p-id="7000" xmlns:xlink="http://www.w3.org/1999/xlink" width="200.1953125" height="200"><defs><style type="text/css"></style></defs><path d="M134.825717 435.449856c20.406272-3.309568 34.238464-22.528 30.922752-42.928128-3.321856-20.38784-22.540288-34.250752-42.944512-30.916608-20.381696 3.321856-34.226176 22.53824-30.912512 42.92608C95.225589 424.943616 114.444021 438.781952 134.825717 435.449856zM102.016757 402.900992c-2.402304-14.78656 7.665664-28.776448 22.429696-31.182848 14.788608-2.394112 28.766208 7.65952 31.178752 22.44608 2.412544 14.77632-7.653376 28.75392-22.441984 31.172608C118.396661 427.743232 104.419061 417.677312 102.016757 402.900992z" p-id="7001"></path><path d="M218.767093 212.156416c-20.406272 3.309568-34.238464 22.528-30.912512 42.928128 3.309568 20.38784 22.528 34.226176 42.932224 30.916608 20.383744-3.332096 34.226176-22.550528 30.912512-42.950656C258.367221 222.662656 239.148789 208.812032 218.767093 212.156416zM229.146357 275.888128c-14.788608 2.383872-28.788736-7.66976-31.178752-22.44608-2.412544-14.788608 7.653376-28.766208 22.429696-31.172608 14.798848-2.418688 28.776448 7.647232 31.176704 22.43584C253.986549 259.49184 243.920629 273.46944 229.146357 275.888128z" p-id="7002"></path><path d="M33.380085 426.51648c-20.393984 3.321856-34.236416 22.540288-30.912512 42.938368 3.309568 20.3776 22.540288 34.238464 42.934272 30.906368 20.391936-3.309568 34.236416-22.540288 30.910464-42.92608C73.002741 437.045248 53.772021 423.184384 33.380085 426.51648zM43.759349 490.248192c-14.788608 2.4064-28.76416-7.647232-31.178752-22.43584-2.387968-14.788608 7.665664-28.766208 22.441984-31.184896 14.78656-2.394112 28.76416 7.65952 31.176704 22.44608C68.611829 473.864192 58.545909 487.841792 43.759349 490.248192z" p-id="7003"></path><path d="M349.718261 155.389952c20.406272-3.321856 34.238464-22.550528 30.916608-42.928128-3.315712-20.39808-22.534144-34.236416-42.938368-30.928896-20.381696 3.321856-34.220032 22.540288-30.900224 42.938368C310.111989 144.861184 329.342709 158.711808 349.718261 155.389952zM339.347189 91.65824c14.78656-2.39616 28.758016 7.65952 31.17056 22.44608 2.418688 14.788608-7.653376 28.76416-22.441984 31.172608-14.788608 2.4064-28.760064-7.671808-31.166464-22.43584C314.509045 108.054528 324.570869 94.06464 339.347189 91.65824z" p-id="7004"></path><path d="M1023.999733 425.742336c-105.525248 42.268672-180.846592 117.686272-222.529536 168.343552-33.908736-47.325184-93.417472-116.250624-176.060416-159.584256 20.29568-46.897152 47.497216-86.757376 78.825472-116.3776-76.70784 12.263424-163.008512-12.750848-219.203584 13.53728-45.756416 21.395456-81.186816 51.884032-107.503616 81.227776C210.319093 471.248896 119.095029 645.505024 118.834933 646.014976c0.3072 0.577536 127.85664 244.224 357.82656 251.721728 38.207488-1.226752 73.562112-9.037824 106.000384-21.116928 65.282048 29.493248 145.664 57.946112 230.178816 69.35552-43.945984-30.152704-89.448448-73.09312-130.715648-124.338176 53.643264-40.034304 93.769728-88.008704 119.3472-123.703296 41.682944 50.644992 117.004288 126.076928 222.529536 168.333312-33.456128-53.41184-54.648832-132.243456-54.648832-220.250112C969.350901 557.996032 990.543605 479.152128 1023.999733 425.742336zM422.602485 394.811392c21.850112-18.96448 45.426688-34.400256 70.402048-46.086144 16.019456-7.510016 36.835328-10.852352 67.5328-10.852352 13.733888 0 27.971584 0.62464 43.020288 1.306624l0.833536 0.034816c14.567424 0.62464 31.0784 1.343488 47.23712 1.343488 2.412544 0 4.777984-0.012288 7.104512-0.034816-19.601408 25.257984-36.777984 54.532096-50.610176 86.503424l-0.954368 2.209792c-44.965888 33.370112-105.404416 43.993088-161.482752 22.575104-18.946048-7.221248-35.678208-17.668096-50.188288-30.257152C403.314421 413.454336 415.596277 400.898048 422.602485 394.811392zM326.948597 456.531968c12.865536-7.266304 39.131136-18.33984 52.738048-23.939072 16.887808 15.388672 36.644864 28.174336 59.283456 36.818944 59.860992 22.851584 124.004352 12.959744 173.21984-20.57216l4.466688 2.349056c78.444544 41.13408 135.477248 106.381312 169.500672 153.868288l4.333568 6.039552c-0.063488 0.313344-0.161792 0.602112-0.219136 0.915456-1.435648 7.8336-2.18112 15.609856-2.609152 23.339008-26.693632-3.100672-107.395072-11.628544-187.457536-11.444224-76.998656 0.161792-164.734976 9.117696-189.298688 11.790336-3.923968-72.398848-48.695296-133.81632-111.710208-161.77152C308.145909 467.847168 317.320949 461.95712 326.948597 456.531968zM140.443381 646.07232c14.925824-25.327616 63.500288-100.921344 140.603392-159.178752 64.907264 23.789568 111.427584 86.075392 111.427584 159.121408 0 73.312256-46.850048 135.747584-112.132096 159.340544C203.198197 747.257856 155.434741 671.909888 140.443381 646.07232zM741.678837 913.020928c-46.508032-11.640832-94.717952-28.637184-144.037888-50.470912 17.782784-13.549568 38.322176-23.986176 61.382656-29.667328 2.285568-0.567296 4.571136-0.948224 6.85056-1.400832l1.574912 1.95584C690.988789 862.701568 716.044021 889.509888 741.678837 913.020928zM786.181877 686.974976c-23.570432 32.84992-62.726144 80.277504-115.331072 119.560192l-8.839168 6.608896c-2.506752 0.507904-5.005312 0.833536-7.503872 1.445888-32.935936 8.144896-61.607936 24.541184-84.502528 46.399488-30.447616 10.68032-61.792256 16.801792-93.341696 17.911808-69.35552-2.408448-128.864256-27.42272-177.917952-60.491776 63.719424-28.024832 108.818432-90.333184 112.207872-163.575808 26.66496-2.729984 124.645376-12.253184 189.251584-11.825152 66.10944 0.428032 158.201856 8.81664 187.406336 11.628544 0.428032 8.8064 1.480704 17.483776 3.106816 26.011648L786.181877 686.974976zM982.877941 826.171392c-75.214848-40.671232-131.141632-96.813056-166.856704-140.214272l-6.653952-8.087552c-3.928064-20.076544-4.483072-41.13408-0.567296-62.459904 0.053248-0.278528 0.13312-0.544768 0.186368-0.821248l7.03488-8.54016c35.713024-43.401216 91.641856-99.54304 166.856704-140.214272-20.844544 51.98848-32.356352 114.966528-32.356352 180.168704C950.519541 711.215104 962.033397 774.1952 982.877941 826.171392z" p-id="7005"></path><path d="M250.806005 564.555776c-20.590592 0-37.275648 16.685056-37.275648 37.281792 0 20.57216 16.685056 37.281792 37.275648 37.281792 20.590592 0 37.287936-16.709632 37.287936-37.281792C288.093941 581.240832 271.396597 564.555776 250.806005 564.555776zM250.806005 620.292096c-10.164224 0-18.438144-8.271872-18.438144-18.466816 0-10.170368 8.27392-18.432 18.438144-18.432 10.170368 0 18.444288 8.261632 18.444288 18.432C269.250293 612.020224 260.976373 620.292096 250.806005 620.292096z" p-id="7006"></path><path d="M31.405813 544.3072c-20.393984 3.332096-34.226176 22.550528-30.916608 42.950656 3.315712 20.375552 22.534144 34.238464 42.940416 30.906368 20.391936-3.321856 34.226176-22.53824 30.910464-42.92608C71.007989 554.835968 51.799797 540.985344 31.405813 544.3072zM41.778933 608.0512c-14.788608 2.394112-28.770304-7.65952-31.172608-22.423552-2.412544-14.798848 7.653376-28.788736 22.441984-31.182848 14.774272-2.4064 28.76416 7.647232 31.164416 22.43584C66.617077 591.6672 56.555253 605.6448 41.778933 608.0512z" p-id="7007"></path><path d="M226.195189 167.376896c20.38784-3.321856 34.23232-22.562816 30.912512-42.938368-3.325952-20.38784-22.544384-34.238464-42.944512-30.916608C193.779445 96.841728 179.934965 116.062208 183.254773 136.460288 186.582773 156.848128 205.801205 170.698752 226.195189 167.376896zM215.803637 103.632896c14.78656-2.381824 28.76416 7.65952 31.176704 22.448128 2.412544 14.78656-7.65952 28.76416-22.44608 31.182848-14.77632 2.383872-28.758016-7.671808-31.154176-22.44608C190.967541 120.041472 201.027317 106.051584 215.803637 103.632896z" p-id="7008"></path><path d="M115.474165 317.681664c20.381696-3.321856 34.226176-22.552576 30.916608-42.940416-3.33824-20.39808-22.556672-34.248704-42.950656-30.916608-20.393984 3.319808-34.23232 22.540288-30.900224 42.92608C75.855605 307.152896 95.074037 320.991232 115.474165 317.681664zM82.652917 285.120512c-2.412544-14.78656 7.65952-28.76416 22.43584-31.172608 14.78656-2.418688 28.758016 7.64928 31.17056 22.448128 2.4064 14.77632-7.653376 28.751872-22.429696 31.17056C99.043061 309.952512 85.049077 299.896832 82.652917 285.120512z" p-id="7009"></path></svg>