<?xml version="1.0" standalone="no"?><!DOCTYPE svg PUBLIC "-//W3C//DTD SVG 1.1//EN" "http://www.w3.org/Graphics/SVG/1.1/DTD/svg11.dtd"><svg t="1592677378613" class="icon" viewBox="0 0 1024 1024" version="1.1" xmlns="http://www.w3.org/2000/svg" p-id="22536" xmlns:xlink="http://www.w3.org/1999/xlink" width="200" height="200"><defs><style type="text/css"></style></defs><path d="M832 42.666667H192a85.333333 85.333333 0 0 0-85.333333 85.333333v784.213333a42.666667 42.666667 0 0 0 61.653333 38.186667L362.666667 853.333333h469.333333a85.333333 85.333333 0 0 0 85.333333-85.333333V128a85.333333 85.333333 0 0 0-85.333333-85.333333z m21.333333 725.333333a21.333333 21.333333 0 0 1-21.333333 21.333333H362.666667a64 64 0 0 0-28.586667 6.826667L170.666667 877.866667V128a21.333333 21.333333 0 0 1 21.333333-21.333333h640a21.333333 21.333333 0 0 1 21.333333 21.333333z" p-id="22537"></path><path d="M640 449.493333a32 32 0 0 0 0-64h-89.386667L664.106667 256a32 32 0 0 0-48.213334-42.666667L512 332.373333 408.106667 213.333333a32 32 0 1 0-48.213334 42.666667l113.493334 129.706667H384a32 32 0 0 0 0 64h96v27.52H384a32 32 0 0 0 0 64h96v114.346666a32 32 0 0 0 64 0v-114.56H640a32 32 0 0 0 0-64h-96v-27.52z" p-id="22538"></path></svg>