<?xml version="1.0" standalone="no"?><!DOCTYPE svg PUBLIC "-//W3C//DTD SVG 1.1//EN" "http://www.w3.org/Graphics/SVG/1.1/DTD/svg11.dtd"><svg t="1592676110789" class="icon" viewBox="0 0 1024 1024" version="1.1" xmlns="http://www.w3.org/2000/svg" p-id="3137" xmlns:xlink="http://www.w3.org/1999/xlink" width="200" height="200"><defs><style type="text/css"></style></defs><path d="M668.762835 602.335425l-162.705686 0 0-92.097558 162.705686 0c10.171664 0 18.419512-8.246825 18.419512-18.419512s-8.247848-18.419512-18.419512-18.419512L513.175267 473.398844l147.122779-147.356093c7.193843-7.193843 7.192819-18.856463 0-26.049283s-18.85544-7.192819-26.048259 0L487.482095 446.99345l-146.455583-146.999982c-7.192819-7.192819-18.85544-7.192819-26.049283 0-7.192819 7.192819-7.192819 18.856463 0 26.049283l146.811694 147.356093-156.299789 0c-10.172687 0-18.419512 8.246825-18.419512 18.419512s8.246825 18.419512 18.419512 18.419512l163.728992 0 0 92.097558-163.728992 0c-10.172687 0-18.419512 8.246825-18.419512 18.419512s8.246825 18.419512 18.419512 18.419512l163.728992 0 0 122.796744c0 10.172687 8.247848 18.419512 18.419512 18.419512 10.172687 0 18.419512-8.246825 18.419512-18.419512l0-122.796744 162.705686 0c10.171664 0 18.419512-8.246825 18.419512-18.419512S678.934498 602.335425 668.762835 602.335425z" p-id="3138"></path><path d="M978.011084 429.213505 978.011084 429.213505c-7.579629-6.721075-19.281135-6.019087-26.002211 1.560542l-44.621267 50.319036c-2.997264-48.862871-14.125719-96.310509-33.19503-141.395334-21.802562-51.547003-53.010331-97.836259-92.75759-137.583518-39.747259-39.747259-86.036515-70.955028-137.583518-92.75759-53.376675-22.577205-110.066815-34.023908-168.493505-34.023908S360.241133 86.780459 306.864458 109.35664c-51.547003 21.802562-97.836259 53.010331-137.583518 92.75759-39.747259 39.746236-70.955028 86.036515-92.75759 137.583518-22.577205 53.376675-34.023908 110.066815-34.023908 168.493505S53.947168 623.309108 76.523349 676.685783c21.802562 51.547003 53.010331 97.836259 92.75759 137.583518 39.746236 39.747259 86.036515 70.955028 137.583518 92.75759 53.376675 22.577205 110.066815 34.023908 168.493505 34.023908 63.6169 0 124.907824-13.489222 182.171016-40.092114 55.323003-25.700335 103.788831-62.120826 144.051837-108.2484 6.689353-7.66354 5.900384-19.299555-1.76418-25.988908-7.665587-6.689353-19.300578-5.900384-25.988908 1.76418-75.289754 86.256526-184.077435 135.727241-298.469765 135.727241-218.36638 0-396.019499-177.653119-396.019499-396.019499s177.653119-396.019499 396.019499-396.019499c210.401987 0 383.000997 164.934446 395.310348 372.300284l-51.560306-45.721321c-7.579629-6.721075-19.281135-6.019087-26.002211 1.560542l0 0c-6.721075 7.579629-6.019087 19.281135 1.560542 26.002211l84.220147 74.682933 0 0c7.579629 6.721075 19.281135 6.019087 26.002211-1.560542l74.682933-84.220147C986.293725 447.636087 985.591737 435.93458 978.011084 429.213505z" p-id="3139"></path></svg>