<?xml version="1.0" standalone="no"?><!DOCTYPE svg PUBLIC "-//W3C//DTD SVG 1.1//EN" "http://www.w3.org/Graphics/SVG/1.1/DTD/svg11.dtd"><svg t="1586695986973" class="icon" viewBox="0 0 1024 1024" version="1.1" xmlns="http://www.w3.org/2000/svg" p-id="8432" xmlns:xlink="http://www.w3.org/1999/xlink" width="200" height="200"><defs><style type="text/css"></style></defs><path d="M250.16 123.264a8.032 8.032 0 0 0 0.368 11.312l42.576 39.776c0.272 0.256 0.608 0.352 0.896 0.56l4.992 108.496 62.32 18.32c-20.624 34.72-35.984 75.264-35.984 119.6 0 63.424 53.088 117.104 107.728 168.976l-72.304 25.088 8.176 109.792-59.568-10.416a8 8 0 0 0-2.752 15.776l48 8.384-53.616 21.648a8 8 0 1 0 6.016 14.848l54.096-21.84-30.416 43.344a7.984 7.984 0 1 0 13.088 9.184l41.248-58.768 0.016-0.032 1.216-1.552 0.016-1.264 0.048-3.2 1.68-104.624 101.136 8.16c34.928 36.512 61.536 73.52 61.536 113.84 0 117.328-132 221.328-132 221.328S637.328 925.328 637.328 720c0-62.352-33.488-103.472-71.952-140.512l10.56-74.816c20.16 2.144 57.376 4.096 76.816 4.08 7.136 0 25.648-2.784 28.24-3.168l47.824-4.864a7.984 7.984 0 1 0-1.632-15.92l-47.856 4.864 31.152-42.96a8 8 0 1 0-12.96-9.392l-30.512 42.08-1.008-49.328c-0.08-4.4-3.712-8.512-8.16-8.304-4.416 0.08-7.92 2.816-7.84 7.232l1.184 59.52c-22.32-2.24-57.904-5.776-83.072-8.464l-5.952-0.576L516.8 534.08c-35.312-34.256-64.656-71.152-64.656-124.752a362.752 362.752 0 0 1 3.824-52.016l27.056 25.648 113.696-36.16 42.208 17.888a7.952 7.952 0 0 0 10.448-4.24 8 8 0 0 0-4.24-10.48l-30.176-12.768 45.12-20.672a8 8 0 0 0-6.656-14.56l-41.744 19.12 14.112-29.936a8 8 0 0 0-3.824-10.656c-3.968-1.904-7.056-0.16-8.928 3.824L592 332.576v0.032l-99.696 31.12-24.064-55.856c8.816-24.048 19.792-40.672 29.184-51.488 26.624 6.544 60.08 0.864 90.32-18.032 49.44-30.896 71.328-85.056 48.88-120.96-22.432-35.904-80.704-39.968-130.144-9.072-37.44 23.392-59.024 60.128-57.584 92.16a432.72 432.72 0 0 0-60.048 61.472l-74.496 6.624-4.608-99.68L351.168 124.8a8 8 0 0 0-11.648-10.96l-33.488 35.648-2.048-52.016a7.52 7.52 0 0 0-8.336-7.168c-4.416 0.176-7.84 4.896-7.664 9.312l2.016 49.872-28.528-26.608a8 8 0 0 0-11.312 0.384z m337.312 37.856c9.296-5.808 20.24-5.04 24.464 1.712s0.096 16.928-9.184 22.736c-9.296 5.808-20.24 5.04-24.464-1.712s-0.112-16.944 9.184-22.736z m-32-48c9.296-5.808 20.24-5.04 24.464 1.712s0.096 16.928-9.184 22.736c-9.296 5.808-20.24 5.04-24.464-1.712s-0.112-16.944 9.184-22.736z" fill="" p-id="8433"></path></svg>