<?xml version="1.0" standalone="no"?><!DOCTYPE svg PUBLIC "-//W3C//DTD SVG 1.1//EN" "http://www.w3.org/Graphics/SVG/1.1/DTD/svg11.dtd"><svg t="1592486397932" class="icon" viewBox="0 0 1024 1024" version="1.1" xmlns="http://www.w3.org/2000/svg" p-id="5717" xmlns:xlink="http://www.w3.org/1999/xlink" width="200" height="200"><defs><style type="text/css"></style></defs><path d="M1004.958728 919.470978l-280.2865-280.396187a396.956761 396.956761 0 0 0 76.780805-236.338629C800.648663 181.095572 620.579394 0.770367 399.304427 0.002559 177.992898-0.801811-0.723566 178.207151 0.044242 399.847741c0.80437 221.604028 180.837076 401.965794 402.185168 402.733602a395.238333 395.238333 0 0 0 237.289249-77.841111l280.030564 280.140251c24.460171 24.423608 63.362445 25.154854 86.945121 1.572178 23.582676-23.619238 22.887992-62.521512-1.535616-86.981683z m-603.058378-197.143857c-177.034598-0.658121-321.090013-144.896347-321.711572-322.223444a317.982219 317.982219 0 0 1 319.408148-319.846895c176.998036 0.621559 321.090013 144.896347 321.711572 322.186881a318.018781 318.018781 0 0 1-319.408148 319.883458z" p-id="5718"></path></svg>